<?xml version="1.0" encoding="UTF-8"?>
<svg width="40px" height="31px" viewBox="0 0 40 31" version="1.1" xmlns="http://www.w3.org/2000/svg" xmlns:xlink="http://www.w3.org/1999/xlink">
    <title>icon 03/icon</title>
    <g id="Page-1" stroke="none" stroke-width="1" fill="none" fill-rule="evenodd">
        <g id="LabQi-Homepage-V02" transform="translate(-955.000000, -1753.000000)" fill="#FFFFFF" fill-rule="nonzero">
            <g id="para-quem?" transform="translate(0.000000, 1423.000000)">
                <g id="Group-6" transform="translate(926.000000, 299.000000)">
                    <path d="M59.5983407,55.6331982 L59.7245382,55.5534979 L59.7245382,55.5534979 C60.28899,55.0886553 60.9995481,54.8363251 61.7300151,54.8297104 L61.7300151,43.8527964 L64.4924826,46.0774005 C64.6651774,46.2168274 64.9175075,46.190239 65.0569344,46.0176091 L65.8936901,44.9817 C66.0331169,44.8090052 65.9999139,44.5566751 65.8338986,44.4172482 L61.7300151,41.1168525 L61.7300151,36.0766042 C61.7300151,35.8574771 61.5507057,35.6781676 61.3315786,35.6781676 L60.0034568,35.6781676 C59.7843296,35.6781676 59.6050202,35.8574771 59.6050202,36.0766042 L59.6050202,39.4035883 L50.3214616,31.9129293 C49.5444973,31.2820714 48.428888,31.2820714 47.6519237,31.9129293 L32.1461013,44.4172482 C31.9734066,44.5566751 31.946883,44.8090052 32.0863099,44.9750205 L32.9230655,46.0109944 C33.0624924,46.1836243 33.3148226,46.2102127 33.4875173,46.070721 L36.2499848,43.8461169 L36.2499848,54.8297104 C36.9738371,54.8297104 37.6843304,55.0820406 38.2554617,55.5402686 C38.2886648,55.5667921 38.335162,55.5867009 38.3749797,55.6132893 L38.3749797,42.1328527 L48.7409447,33.7722998 C48.8870511,33.6527818 49.0929489,33.6527818 49.2389904,33.7722998 L59.5983407,42.1328527 L59.5983407,55.6331982 Z M51.3905737,50.5664264 C52.4132535,50.5664264 53.2499443,49.7297355 53.2499443,48.7070558 L53.2499443,43.9258172 C53.2499443,42.9031374 52.4132535,42.0664466 51.3905737,42.0664466 L46.6093351,42.0664466 C45.5866554,42.0664466 44.7499645,42.9031374 44.7499645,43.9258172 L44.7499645,48.7070558 C44.7499645,49.7297355 45.5866554,50.5664264 46.6093351,50.5664264 L51.3905737,50.5664264 Z M51.1249493,48.4414314 L46.8749595,48.4414314 L46.8749595,44.1914416 L51.1249493,44.1914416 L51.1249493,48.4414314 Z M67.5737512,61.191401 C67.8725786,61.2046952 68.1249088,60.952365 68.1249088,60.6535376 L68.1249088,59.5910402 C68.1249088,59.3054421 67.8991022,59.0797003 67.6135689,59.0664061 C65.6545892,58.966797 63.7819245,58.2961214 62.4205996,57.1871267 C62.0288426,56.8683904 61.4710054,56.8683904 61.0792484,57.1937413 C58.1772892,59.577746 52.6456748,59.6042695 49.67063,57.1871267 C49.278873,56.8683904 48.7210358,56.8683904 48.3292788,57.1937413 C45.4273196,59.577746 39.8957052,59.5976548 36.9206604,57.1871267 C36.5289034,56.8683904 35.9710662,56.8750051 35.5793092,57.1937413 C34.2378932,58.2961214 32.3652284,58.966797 30.3863399,59.0664061 C30.1008067,59.0797003 29.875,59.3054421 29.875,59.5910402 L29.875,60.6535376 C29.875,60.952365 30.1273302,61.2046952 30.4261576,61.191401 C32.5710614,61.0917919 34.6296502,60.4343456 36.2565995,59.3386451 C39.8292991,61.7359439 45.5003404,61.7160351 49.0065691,59.3386451 C52.5725892,61.7359439 58.25031,61.7160351 61.7565387,59.3386451 C63.3901674,60.4343456 65.4487563,61.0917919 67.5737512,61.191401 Z" id="icon-03"></path>
                </g>
            </g>
        </g>
    </g>
</svg>