<?xml version="1.0" encoding="UTF-8"?>
<svg width="24px" height="24px" viewBox="0 0 24 24" version="1.1" xmlns="http://www.w3.org/2000/svg" xmlns:xlink="http://www.w3.org/1999/xlink">
    <title>icon 10/icon</title>
    <g id="Page-1" stroke="none" stroke-width="1" fill="none" fill-rule="evenodd">
        <g id="LabQi-Homepage-V02" transform="translate(-148.000000, -4857.000000)" fill="#78B56D" fill-rule="nonzero">
            <g id="tips" transform="translate(0.000000, 3720.000000)">
                <g id="Tipos" transform="translate(122.000000, 0.000000)">
                    <g id="Group-22-Copy-2" transform="translate(0.000000, 1104.000000)">
                        <path d="M47.7499481,51.0000072 C48.9917665,51.0000072 49.9999428,49.9918308 49.9999428,48.7500125 L49.9999428,47.2500161 C49.9999428,43.5281317 46.9718433,40.5000322 43.2499589,40.5000322 L41.1490117,40.5000322 C40.2738612,39.416737 39.0476068,38.633963 37.6249723,38.3634711 L37.6249723,36.9187724 C37.6249723,36.9187724 43.1843157,37.5000393 43.2499589,37.5000393 C43.6582373,37.5000393 43.9999571,37.1493932 43.9999571,36.708339 L43.9999571,35.2917469 C43.9999571,34.8501891 43.6596564,34.5000501 43.2499589,34.5000501 C43.1843157,34.5000501 43.5368387,34.4630135 37.6249723,35.1244347 L37.6249723,33.7500483 C37.6249723,33.3360936 37.2889288,33.0000501 36.8749741,33.0000501 L36.1249759,33.0000501 C35.7110212,33.0000501 35.3749776,33.3360936 35.3749776,33.7500483 L35.3749776,35.1244347 C29.4631113,34.4630135 29.8146729,34.5000501 29.7499911,34.5000501 C29.3412549,34.5000501 29,34.8501891 29,35.2917469 L29,36.708339 C29,37.1493932 29.3402935,37.5000393 29.7499911,37.5000393 C29.8170075,37.5000393 35.3749776,36.9187724 35.3749776,36.9187724 L35.3749776,38.3634711 C33.9523431,38.633963 32.7260887,39.416737 31.8509382,40.5000322 L26.7499982,40.5000322 C26.3360435,40.5000322 26,40.8360757 26,41.2500304 L26,42.0000286 C26,42.4139833 26.3360435,42.7500268 26.7499982,42.7500268 L33.0663894,42.7500268 C33.6433534,41.4247126 34.965097,40.4971025 36.5017602,40.4971025 C38.0384692,40.4971025 39.3565966,41.4247126 39.9335605,42.7500268 L43.2499589,42.7500268 C45.7323596,42.7525903 47.7473847,44.7676154 47.7499481,47.2500161 L47.7499481,48.7500125 L44.7499553,48.7500125 L44.7499553,47.2500161 C44.7499553,46.4221525 44.0778225,45.7500197 43.2499589,45.7500197 L39.9335605,45.7500197 C39.3565966,47.0753339 38.0348529,48.002944 36.4981897,48.002944 C34.9614807,48.002944 33.6433534,47.0753339 33.0663894,45.7500197 L26.7499982,45.7500197 C26.3360435,45.7500197 26,46.0860632 26,46.5000179 L26,47.2500161 C26,47.6639708 26.3360435,48.0000143 26.7499982,48.0000143 L31.8509382,48.0000143 C32.9506212,49.3617207 34.6132607,50.2500089 36.499975,50.2500089 C38.3866892,50.2500089 40.0493287,49.3617207 41.1490117,48.0000143 L42.4999607,48.0000143 L42.4999607,48.7500125 C42.4999607,49.9918308 43.508137,51.0000072 44.7499553,51.0000072 L47.7499481,51.0000072 Z M46.9999535,56.9999928 C47.8278136,56.9999928 48.4999535,56.3278601 48.4999535,55.5000036 C48.4999535,54.6717208 46.9999535,52.5000036 46.9999535,52.5000036 C46.9999535,52.5000036 45.4999535,54.6717208 45.4999535,55.5000036 C45.4999535,56.3278601 46.1720863,56.9999928 46.9999535,56.9999928 Z" id="icon-10"></path>
                    </g>
                </g>
            </g>
        </g>
    </g>
</svg>