<?xml version="1.0" encoding="UTF-8"?>
<svg width="20px" height="24px" viewBox="0 0 20 24" version="1.1" xmlns="http://www.w3.org/2000/svg" xmlns:xlink="http://www.w3.org/1999/xlink">
    <title>icon 05/icon</title>
    <g id="Page-1" stroke="none" stroke-width="1" fill="none" fill-rule="evenodd">
        <g id="LabQi-Homepage-V02" transform="translate(-148.000000, -4260.000000)" fill="#78B56D" fill-rule="nonzero">
            <g id="tips" transform="translate(0.000000, 3720.000000)">
                <g id="Tipos" transform="translate(122.000000, 0.000000)">
                    <g id="Group-22" transform="translate(0.000000, 507.000000)">
                        <g id="Group-23" transform="translate(26.000000, 29.000000)">
                            <path d="M14.765132,27.9999928 C15.6116724,27.9999928 16.4287328,27.6512235 16.9954429,27.0226697 C18.5066545,25.3454734 19.4446558,23.1418959 19.4980767,20.7189128 C19.5801077,16.9712563 17.3995099,13.617825 14.249966,11.9242408 L14.249966,6.2500447 L14.9999642,6.2500447 C15.4143309,6.2500447 15.7499624,5.91441318 15.7499624,5.50005007 L15.7499624,4.75004828 C15.7499624,4.33568159 15.4143309,4.00005007 14.9999642,4.00005007 L4.49998927,4.00005007 C4.08562258,4.00005007 3.74999106,4.33568159 3.74999106,4.75004828 L3.74999106,5.50005007 C3.74999106,5.91441318 4.08562258,6.2500447 4.49998927,6.2500447 L5.24998748,6.2500447 L5.24998748,11.8806618 C2.13798013,13.5086028 0,16.7443892 0,20.5000107 C0,23.0214128 0.957639318,25.3182823 2.52845161,27.0484418 C3.08856991,27.6657804 3.89812303,27.9999928 4.73157136,27.9999928 L14.765132,27.9999928 Z M14.765132,25.7499982 L4.73157136,25.7499982 C4.51688071,25.7499982 4.31624337,25.669844 4.19484474,25.5362689 C2.94048371,24.1548329 2.24999464,22.3660799 2.24999464,20.5000107 C2.24999464,17.7175009 3.79920054,15.1787954 6.29295375,13.8742636 L7.49998212,13.2423681 L7.49998212,6.2500447 L11.9999714,6.2500447 L11.9999714,13.2691015 L13.1844778,13.9061239 C15.7138908,15.2664111 17.3090102,17.9209764 17.2485398,20.6697033 C17.2087145,22.4617065 16.5252749,24.1829853 15.323877,25.5160815 C15.192133,25.6623367 14.9830728,25.7499982 14.765132,25.7499982 Z M11.4163699,23.5000036 C11.8766959,23.5000036 12.2498182,23.1268813 12.2498182,22.6665552 L12.2498182,21.9849925 C13.2562092,21.3765803 13.9162114,20.4203143 13.9162114,19.3333112 C13.9166691,17.4925106 12.0515155,16.0000215 9.74997675,16.0000215 C7.44889581,16.0000215 5.58328442,17.4925106 5.58328442,19.3333112 C5.58328442,20.4203143 6.24374427,21.3765803 7.24967754,21.9849925 L7.24967754,22.6665552 C7.24967754,23.1268813 7.62279982,23.5000036 8.08312587,23.5000036 L11.4163699,23.5000036 Z M8.08358363,20.1667138 C7.62325758,20.1667138 7.2501353,19.7935915 7.2501353,19.3333112 C7.2501353,18.8729852 7.62325758,18.4998629 8.08358363,18.4998629 C8.54386391,18.4998629 8.91703196,18.8729852 8.91703196,19.3333112 C8.91652842,19.7935915 8.54340614,20.1667138 8.08358363,20.1667138 Z M11.4168276,20.1667138 C10.9565474,20.1667138 10.5834251,19.7935915 10.5834251,19.3333112 C10.5834251,18.8729852 10.9565474,18.4998629 11.4168276,18.4998629 C11.8771537,18.4998629 12.250276,18.8729852 12.250276,19.3333112 C12.250276,19.7935915 11.8766959,20.1667138 11.4168276,20.1667138 Z" id="icon-05"></path>
                        </g>
                    </g>
                </g>
            </g>
        </g>
    </g>
</svg>