<?xml version="1.0" encoding="UTF-8"?>
<svg width="24px" height="24px" viewBox="0 0 24 24" version="1.1" xmlns="http://www.w3.org/2000/svg" xmlns:xlink="http://www.w3.org/1999/xlink">
    <title>icon 11/icon</title>
    <g id="Page-1" stroke="none" stroke-width="1" fill="none" fill-rule="evenodd">
        <g id="LabQi-Homepage-V02" transform="translate(-148.000000, -4959.000000)" fill="#78B56D" fill-rule="nonzero">
            <g id="tips" transform="translate(0.000000, 3720.000000)">
                <g id="Tipos" transform="translate(122.000000, 0.000000)">
                    <g id="Group-22-Copy-2" transform="translate(0.000000, 1206.000000)">
                        <path d="M43.41544,46.4831264 C47.0650895,46.3936339 49.9999428,43.4212899 49.9999428,39.750034 C49.9999428,36.0246248 46.9753681,33.0000501 43.2499589,33.0000501 C40.3151056,33.0000501 37.8429588,34.8844297 36.9134261,37.5000393 L39.3762346,37.5000393 C40.1562162,36.1617704 41.5919886,35.2500447 43.2499589,35.2500447 C45.732268,35.2528828 47.74711,37.2677248 47.7499481,39.750034 C47.7499481,42.0970743 45.9372999,44.0081415 43.6423072,44.2101979 L43.41544,46.4831264 Z M39.4999678,56.9999928 C40.276974,56.9999928 40.9168346,56.4063206 40.9924569,55.6490439 L42.4924534,40.6490797 C42.4973972,40.5995498 42.4999607,40.5493332 42.4999607,40.4985216 C42.4999607,39.6706579 41.8277821,39.0000358 40.9999642,39.0000358 L27.4999964,39.0000358 C26.6721786,39.0000358 26.0000916,39.6721686 26.0000916,40.5000358 C26.0000916,40.5508438 26.0025635,40.5995498 26.0075073,40.6490797 L27.5075037,55.6490439 C27.5831261,56.4063206 28.2229866,56.9999928 28.9999928,56.9999928 L39.4999678,56.9999928 Z M39.7962318,45.0000215 L28.7037289,45.0000215 L28.3287298,41.2500304 L40.1712309,41.2500304 L39.7962318,45.0000215 Z M38.8211975,54.7499982 L29.6805943,54.7499982 L28.930596,47.2500161 L39.5711957,47.2500161 L38.8211975,54.7499982 Z" id="icon-11"></path>
                    </g>
                </g>
            </g>
        </g>
    </g>
</svg>