<?xml version="1.0" encoding="UTF-8"?>
<svg width="24px" height="22px" viewBox="0 0 24 22" version="1.1" xmlns="http://www.w3.org/2000/svg" xmlns:xlink="http://www.w3.org/1999/xlink">
    <title>icon 15/icon</title>
    <g id="Page-1" stroke="none" stroke-width="1" fill="none" fill-rule="evenodd">
        <g id="LabQi-Homepage-V02" transform="translate(-148.000000, -5368.000000)" fill="#78B56D" fill-rule="nonzero">
            <g id="tips" transform="translate(0.000000, 3720.000000)">
                <g id="Tipos" transform="translate(122.000000, 0.000000)">
                    <g id="Group-22-Copy-2" transform="translate(0.000000, 1614.000000)">
                        <path d="M44.4077778,55.4953272 C45.8983901,55.4953272 47.1686812,54.3984366 47.3796182,52.9218776 L49.9858895,36.2109799 C50.1124608,35.3063037 49.4140067,34.5000465 48.4999464,34.5000465 L27.4999964,34.5000465 C26.5859361,34.5000465 25.887482,35.3063037 26.0140533,36.2109799 L28.6390471,52.9218776 C28.849984,54.3984366 30.115606,55.4953272 31.6109333,55.4953272 L44.4077778,55.4953272 Z M46.3343174,45.0000215 L29.6750095,45.0000215 L28.376566,36.7500411 L47.6233768,36.7500411 L46.3343174,45.0000215 Z M44.4077778,53.2500018 L31.6109333,53.2500018 C31.2406034,53.2500018 30.9218633,52.9734216 30.8656042,52.5749851 L30.0265712,47.2500161 L45.9827557,47.2500161 L45.1483918,52.6078067 C45.0968478,52.9734216 44.7780619,53.2500018 44.4077778,53.2500018 Z" id="icon-15"></path>
                    </g>
                </g>
            </g>
        </g>
    </g>
</svg>