<?xml version="1.0" encoding="UTF-8"?>
<svg width="24px" height="24px" viewBox="0 0 24 24" version="1.1" xmlns="http://www.w3.org/2000/svg" xmlns:xlink="http://www.w3.org/1999/xlink">
    <title>icon 13/icon</title>
    <g id="Page-1" stroke="none" stroke-width="1" fill="none" fill-rule="evenodd">
        <g id="LabQi-Homepage-V02" transform="translate(-148.000000, -5163.000000)" fill="#78B56D" fill-rule="nonzero">
            <g id="tips" transform="translate(0.000000, 3720.000000)">
                <g id="Tipos" transform="translate(122.000000, 0.000000)">
                    <g id="Group-22-Copy-2" transform="translate(0.000000, 1410.000000)">
                        <path d="M39.4999678,56.9999928 C40.3282434,56.9999928 40.9999642,56.328272 40.9999642,55.4999964 L40.9999642,43.500025 C40.9999642,41.0147404 38.9852596,39.0000358 36.499975,39.0000358 L36.499975,34.5000501 C36.499975,33.6717709 35.8282542,33.0000501 34.9999785,33.0000501 L31.9999857,33.0000501 C31.1717101,33.0000501 30.4999893,33.6717709 30.4999893,34.5000501 L30.4999893,39.0000358 C28.0147047,39.0000358 26,41.0147404 26,43.500025 L26,55.4999964 C26,56.328272 26.6717208,56.9999928 27.5,56.9999928 L39.4999678,56.9999928 Z M48.4999499,37.5000465 C49.328222,37.5000465 49.9999499,36.8283185 49.9999499,36.0000465 C49.9999499,35.1717673 49.328222,34.5000465 48.4999499,34.5000465 C47.6716707,34.5000465 46.9999499,35.1717673 46.9999499,36.0000465 C46.9999499,36.8283185 47.6716707,37.5000465 48.4999499,37.5000465 Z M43.9999607,37.5000465 C44.8282327,37.5000465 45.4999607,36.8283185 45.4999607,36.0000465 C45.4999607,35.1717673 44.8282327,34.5000465 43.9999607,34.5000465 C43.1716815,34.5000465 42.4999607,35.1717673 42.4999607,36.0000465 C42.4999607,36.8283185 43.1716815,37.5000465 43.9999607,37.5000465 Z M39.4999714,37.5000465 C40.3282434,37.5000465 40.9999714,36.8283185 40.9999714,36.0000465 C40.9999714,35.1717673 40.3282434,34.5000465 39.4999714,34.5000465 C38.6716922,34.5000465 37.9999714,35.1717673 37.9999714,36.0000465 C37.9999714,36.8283185 38.6716922,37.5000465 39.4999714,37.5000465 Z M34.2499839,39.0000358 L32.7499839,39.0000358 L32.7499839,35.2500447 L34.2499839,35.2500447 L34.2499839,39.0000358 Z M48.4999499,42.0000358 C49.328222,42.0000358 49.9999499,41.3283078 49.9999499,40.5000358 C49.9999499,39.6717566 49.328222,39.0000358 48.4999499,39.0000358 C47.6716707,39.0000358 46.9999499,39.6717566 46.9999499,40.5000358 C46.9999499,41.3283078 47.6716707,42.0000358 48.4999499,42.0000358 Z M43.9999607,42.0000358 C44.8282327,42.0000358 45.4999607,41.3283078 45.4999607,40.5000358 C45.4999607,39.6717566 44.8282327,39.0000358 43.9999607,39.0000358 C43.1716815,39.0000358 42.4999607,39.6717566 42.4999607,40.5000358 C42.4999607,41.3283078 43.1716815,42.0000358 43.9999607,42.0000358 Z M38.7499696,54.7499982 L28.2499946,54.7499982 L28.2499946,43.500025 C28.2499946,42.2592596 29.2592238,41.2500304 30.4999893,41.2500304 L36.499975,41.2500304 C37.7407404,41.2500304 38.7499696,42.2592596 38.7499696,43.500025 L38.7499696,54.7499982 Z M48.4999499,46.500025 C49.328222,46.500025 49.9999499,45.8282971 49.9999499,45.000025 C49.9999499,44.1717458 49.328222,43.500025 48.4999499,43.500025 C47.6716707,43.500025 46.9999499,44.1717458 46.9999499,45.000025 C46.9999499,45.8282971 47.6716707,46.500025 48.4999499,46.500025 Z M33.4999893,51.0000072 C35.1569911,51.0000072 36.499975,49.6570233 36.499975,48.0000215 C36.499975,46.3430053 35.1569911,45.0000215 33.4999893,45.0000215 C31.8429731,45.0000215 30.4999893,46.3430053 30.4999893,48.0000215 C30.4999893,49.6570233 31.8429731,51.0000072 33.4999893,51.0000072 Z" id="icon-13"></path>
                    </g>
                </g>
            </g>
        </g>
    </g>
</svg>