<?xml version="1.0" encoding="UTF-8"?>
<svg width="35px" height="31px" viewBox="0 0 35 31" version="1.1" xmlns="http://www.w3.org/2000/svg" xmlns:xlink="http://www.w3.org/1999/xlink">
    <title>icon 01/icon</title>
    <g id="Page-1" stroke="none" stroke-width="1" fill="none" fill-rule="evenodd">
        <g id="LabQi-Homepage-V02" transform="translate(-145.000000, -1752.000000)" fill="#A6B56D" fill-rule="nonzero">
            <g id="para-quem?" transform="translate(0.000000, 1423.000000)">
                <g id="Group-6" transform="translate(114.000000, 299.000000)">
                    <path d="M63.9061727,60.1249949 C64.7863777,60.1249949 65.4999189,59.4114537 65.4999189,58.5312487 L65.4999189,40.4687918 C65.4999189,39.2730282 64.2416402,38.5191504 63.1934097,39.0433306 L52.7499493,44.2650283 L52.7499493,40.4687918 C52.7499493,39.2730282 51.4916706,38.5191504 50.4434401,39.0433306 L39.9999797,44.2650283 L39.9999797,31.9688121 C39.9999797,31.0886071 39.2864385,30.3750659 38.4062335,30.3750659 L33.0937462,30.3750659 C32.2135412,30.3750659 31.5,31.0886071 31.5,31.9688121 L31.5,58.5312487 C31.5,59.4114537 32.2135412,60.1249949 33.0937462,60.1249949 L63.9061727,60.1249949 Z M63.374924,58 L33.6249949,58 L33.6249949,32.5000608 L37.8749848,32.5000608 L37.8749848,46.8437766 C37.8749848,47.2387113 38.291255,47.4952567 38.6438428,47.3189303 L50.6249544,41.3283746 L50.6249544,46.8437766 C50.6249544,47.238841 51.0411598,47.4951918 51.3938124,47.3189303 L63.374924,41.3283746 L63.374924,58 Z M58.328061,53.7500101 C58.7681311,53.7500101 59.1249341,53.3932071 59.1249341,52.953137 L59.1249341,50.2968934 C59.1249341,49.8568233 58.7681311,49.5000203 58.328061,49.5000203 L55.6718174,49.5000203 C55.2317473,49.5000203 54.8749443,49.8568233 54.8749443,50.2968934 L54.8749443,52.953137 C54.8749443,53.3932071 55.2317473,53.7500101 55.6718174,53.7500101 L58.328061,53.7500101 Z M49.8280813,53.7500101 C50.2681514,53.7500101 50.6249544,53.3932071 50.6249544,52.953137 L50.6249544,50.2968934 C50.6249544,49.8568233 50.2681514,49.5000203 49.8280813,49.5000203 L47.1718376,49.5000203 C46.7317676,49.5000203 46.3749645,49.8568233 46.3749645,50.2968934 L46.3749645,52.953137 C46.3749645,53.3932071 46.7317676,53.7500101 47.1718376,53.7500101 L49.8280813,53.7500101 Z M41.3281016,53.7500101 C41.7681716,53.7500101 42.1249747,53.3932071 42.1249747,52.953137 L42.1249747,50.2968934 C42.1249747,49.8568233 41.7681716,49.5000203 41.3281016,49.5000203 L38.6718579,49.5000203 C38.2317878,49.5000203 37.8749848,49.8568233 37.8749848,50.2968934 L37.8749848,52.953137 C37.8749848,53.3932071 38.2317878,53.7500101 38.6718579,53.7500101 L41.3281016,53.7500101 Z" id="icon-01"></path>
                </g>
            </g>
        </g>
    </g>
</svg>