<?xml version="1.0" encoding="UTF-8"?>
<svg width="21px" height="24px" viewBox="0 0 21 24" version="1.1" xmlns="http://www.w3.org/2000/svg" xmlns:xlink="http://www.w3.org/1999/xlink">
    <title>icon 04/icon</title>
    <g id="Page-1" stroke="none" stroke-width="1" fill="none" fill-rule="evenodd">
        <g id="LabQi-Homepage-V02" transform="translate(-148.000000, -4158.000000)" fill="#78B56D" fill-rule="nonzero">
            <g id="tips" transform="translate(0.000000, 3720.000000)">
                <g id="Tipos" transform="translate(122.000000, 0.000000)">
                    <g id="Group-22-Copy-2" transform="translate(0.000000, 405.000000)">
                        <path d="M34.2499803,56.9999928 C38.8108978,56.9999928 42.4999607,53.4984295 42.4999607,49.1718865 C42.4999607,44.2594074 37.821856,40.9312903 35.6187362,33.9703694 C35.4312367,33.3328435 34.8405856,33.0000501 34.2499803,33.0000501 C33.6687134,33.0000501 33.0921614,33.3187902 32.8812244,33.9703694 C30.6874888,40.9031379 26,44.287514 26,49.1718865 C26,53.4984295 29.6890629,56.9999928 34.2499803,56.9999928 Z M43.2499589,40.5000322 C45.3171231,40.5000322 46.9999499,38.8172054 46.9999499,36.7500411 C46.9999499,34.6828769 45.3171231,33.0000501 43.2499589,33.0000501 C41.1827946,33.0000501 39.4999678,34.6828769 39.4999678,36.7500411 C39.4999678,38.8172054 41.1827946,40.5000322 43.2499589,40.5000322 Z M43.2499624,38.2500447 C42.4202642,38.2500447 41.7499624,37.5797358 41.7499624,36.7500447 C41.7499624,35.9203465 42.4202642,35.2500447 43.2499624,35.2500447 C44.0796535,35.2500447 44.7499624,35.9203465 44.7499624,36.7500447 C44.7499624,37.5797358 44.0796535,38.2500447 43.2499624,38.2500447 Z M34.2499803,54.7499982 C30.9406315,54.7499982 28.2499946,52.2468609 28.2499946,49.1718865 C28.2499946,47.1609355 29.426536,45.28594 30.9124791,42.9140889 C32.0234231,41.1422273 33.2515544,39.1828661 34.2499803,36.7734786 C35.2531212,39.1969194 36.4812067,41.1516114 37.5968657,42.9234731 C39.0780938,45.28594 40.249966,47.1515971 40.249966,49.1718865 C40.249966,52.2468609 37.5593291,54.7499982 34.2499803,54.7499982 Z" id="icon-04"></path>
                    </g>
                </g>
            </g>
        </g>
    </g>
</svg>