<?xml version="1.0" encoding="UTF-8"?>
<svg width="17px" height="24px" viewBox="0 0 17 24" version="1.1" xmlns="http://www.w3.org/2000/svg" xmlns:xlink="http://www.w3.org/1999/xlink">
    <title>08/icon</title>
    <g id="Page-1" stroke="none" stroke-width="1" fill="none" fill-rule="evenodd">
        <g id="LabQi-Homepage-V02" transform="translate(-148.000000, -4653.000000)" fill="#78B56D" fill-rule="nonzero">
            <g id="tips" transform="translate(0.000000, 3720.000000)">
                <g id="Tipos" transform="translate(122.000000, 0.000000)">
                    <g id="Group-22-Copy-2" transform="translate(0.000000, 900.000000)">
                        <path d="M34.2499803,56.9999928 C38.8099823,56.9999928 42.4999607,53.2663897 42.4999607,48.6520513 C42.4999607,43.4137826 37.8223137,41.4642633 35.6196517,34.035509 C35.4316944,33.3530308 34.8410892,33.0000501 34.2485613,33.0000501 C33.6696747,33.0000501 33.0889113,33.3375584 32.8803089,34.035509 C30.6879466,41.4304804 26,43.4400124 26,48.6520513 C26,53.2663897 29.6899784,56.9999928 34.2499803,56.9999928 Z M34.2499803,54.7499982 C30.9415471,54.7499982 28.2499946,52.0143633 28.2499946,48.6520513 C28.2499946,46.6209588 29.2188949,45.2325191 30.685612,43.1306564 C31.8176589,41.5083 33.1690655,39.5719186 34.2499803,36.9216105 C35.3351523,39.5855141 36.68839,41.5200188 37.821856,43.1400405 C39.2838581,45.2297267 40.249966,46.6101556 40.249966,48.6525091 C40.249966,52.0143633 37.5584136,54.7499982 34.2499803,54.7499982 Z M34.9999785,53.2500018 C35.4143452,53.2500018 35.7499768,52.9143703 35.7499768,52.5000036 C35.7499768,52.0856369 35.4143452,51.7500054 34.9999785,51.7500054 C32.931853,51.7500054 31.2499911,50.0676821 31.2499911,48.0000143 C31.2499911,47.5856476 30.914356,47.2500161 30.4999893,47.2500161 C30.0856226,47.2500161 29.7499911,47.5856476 29.7499911,48.0000143 C29.7499911,50.8945387 32.1054542,53.2500018 34.9999785,53.2500018 Z" id="08"></path>
                    </g>
                </g>
            </g>
        </g>
    </g>
</svg>