<?xml version="1.0" encoding="UTF-8"?>
<svg width="27px" height="18px" viewBox="0 0 27 18" version="1.1" xmlns="http://www.w3.org/2000/svg" xmlns:xlink="http://www.w3.org/1999/xlink">
    <title>icon 07/icon</title>
    <g id="Page-1" stroke="none" stroke-width="1" fill="none" fill-rule="evenodd">
        <g id="LabQi-Homepage-V02" transform="translate(-148.000000, -4554.000000)" fill="#78B56D" fill-rule="nonzero">
            <g id="tips" transform="translate(0.000000, 3720.000000)">
                <g id="Tipos" transform="translate(122.000000, 0.000000)">
                    <g id="Group-22-Copy-2" transform="translate(0.000000, 798.000000)">
                        <path d="M52.9953202,38.962545 L52.9953202,38.1797252 C52.9999356,37.795342 52.699918,37.5000393 52.3202497,37.4625486 C51.1437084,37.3406464 50.0139961,36.9047191 49.2077389,36.2484707 C48.799964,35.9156773 48.1952596,35.9203465 47.7874389,36.2531856 C46.8265037,37.0453438 45.4436945,37.5000393 43.9999571,37.5000393 C42.5890413,37.5000393 41.1734105,37.0312905 40.2077603,36.2484707 C39.7999854,35.9156773 39.195281,35.9203465 38.7874604,36.2531856 C37.8265251,37.0453438 36.4437159,37.5000393 34.9999785,37.5000393 C33.5890627,37.5000393 32.1734319,37.0312905 31.2077818,36.2484707 C30.8000069,35.9156773 30.1953025,35.9203465 29.7874818,36.2531856 C28.9812246,36.9141032 27.8796647,37.3406464 26.68907,37.4625486 C26.3046868,37.5000393 26,37.8000569 26,38.1891094 L26,38.962545 C26,39.3890882 26.3562308,39.750034 26.7828198,39.7125432 C28.1374766,39.595356 29.431251,39.173482 30.4999893,38.5031803 C33.0734389,40.1062648 36.9640547,40.0922115 39.4999678,38.5031803 C42.0734175,40.1062648 45.9640332,40.0922115 48.4999464,38.5031803 C49.5733996,39.173482 50.8671282,39.595356 52.2124467,39.7125432 C52.6389898,39.750034 52.9953202,39.3890882 52.9953202,38.962545 Z M52.9953202,46.087528 L52.9953202,45.3047082 C52.9999356,44.920325 52.699918,44.6250224 52.3202497,44.5875316 C51.1437084,44.4656294 50.0139961,44.0297021 49.2077389,43.3734537 C48.799964,43.0406603 48.1952596,43.0453295 47.7874389,43.3781686 C46.8265037,44.1703268 45.4436945,44.6250224 43.9999571,44.6250224 C42.5890413,44.6250224 41.1734105,44.1562735 40.2077603,43.3734537 C39.7999854,43.0406603 39.195281,43.0453295 38.7874604,43.3781686 C37.8265251,44.1703268 36.4437159,44.6250224 34.9999785,44.6250224 C33.5890627,44.6250224 32.1734319,44.1562735 31.2077818,43.3734537 C30.8000069,43.0406603 30.1953025,43.0453295 29.7874818,43.3781686 C28.9812246,44.0437554 27.8796647,44.4703444 26.68907,44.5875316 C26.3046868,44.6250224 26,44.9250399 26,45.3140924 L26,46.087528 C26,46.5140712 26.3562308,46.875017 26.7828198,46.8375262 C28.1374766,46.720339 29.431251,46.298465 30.4999893,45.6281633 C33.0734389,47.2312478 36.9640547,47.2171945 39.4999678,45.6281633 C42.0734175,47.2312478 45.9640332,47.2171945 48.4999464,45.6281633 C49.5733996,46.298465 50.8671282,46.720339 52.2124467,46.8375262 C52.6389898,46.875017 52.9953202,46.5140712 52.9953202,46.087528 Z M52.9953202,53.2453326 L52.9953202,52.4625128 C52.9999356,52.0827988 52.699918,51.7874961 52.3202497,51.7453362 C51.1437084,51.623434 50.0139961,51.1875067 49.2077389,50.5312583 C48.799964,50.1984649 48.1952596,50.2031341 47.7874389,50.5359274 C46.8265037,51.3281314 45.4436945,51.7828269 43.9999571,51.7828269 C42.5890413,51.7828269 41.1734105,51.3140781 40.2077603,50.5312583 C39.7999854,50.1984649 39.195281,50.2031341 38.7874604,50.5359274 C37.8265251,51.3281314 36.4437159,51.7828269 34.9999785,51.7828269 C33.5890627,51.7828269 32.1734319,51.3140781 31.2077818,50.5312583 C30.8000069,50.1984649 30.1953025,50.2031341 29.7874818,50.5359274 C28.9812246,51.20156 27.8796647,51.628149 26.68907,51.7453362 C26.3046868,51.7874961 26,52.0875137 26,52.471897 L26,53.2453326 C26,53.6718758 26.3562308,54.0328216 26.7828198,53.9953308 C28.1374766,53.8781436 29.431251,53.4562696 30.4999893,52.7859221 C33.0734389,54.3890524 36.9640547,54.3749991 39.4999678,52.7859221 C42.0734175,54.3890524 45.9640332,54.3749991 48.4999464,52.7859221 C49.5733996,53.4562696 50.8671282,53.8781436 52.2124467,53.9953308 C52.6389898,54.0328216 52.9953202,53.6718758 52.9953202,53.2453326 Z" id="icon-07"></path>
                    </g>
                </g>
            </g>
        </g>
    </g>
</svg>