<?xml version="1.0" encoding="UTF-8"?>
<svg width="24px" height="24px" viewBox="0 0 24 24" version="1.1" xmlns="http://www.w3.org/2000/svg" xmlns:xlink="http://www.w3.org/1999/xlink">
    <title>icon 12/icon</title>
    <g id="Page-1" stroke="none" stroke-width="1" fill="none" fill-rule="evenodd">
        <g id="LabQi-Homepage-V02" transform="translate(-148.000000, -5061.000000)" fill="#78B56D" fill-rule="nonzero">
            <g id="tips" transform="translate(0.000000, 3720.000000)">
                <g id="Tipos" transform="translate(122.000000, 0.000000)">
                    <g id="Group-22-Copy-2" transform="translate(0.000000, 1308.000000)">
                        <path d="M44.9374548,48.0000143 C47.7311799,48.0000143 49.9999428,45.7265822 49.9999428,42.9375264 C49.9999428,40.2516044 47.895242,38.0484847 45.2515258,37.8844226 C44.6187148,35.896909 42.78121,34.5000501 40.6249651,34.5000501 C39.9921541,34.5000501 39.3687273,34.6219029 38.7874604,34.8609923 C37.7327754,33.6797359 36.2374939,33.0000501 34.6249794,33.0000501 C31.6249866,33.0000501 29.1687241,35.3578478 29.009377,38.3156807 C27.1999788,39.1125538 26,40.8984687 26,42.9375264 C26,45.7265822 28.2687629,48.0000143 31.0624879,48.0000143 L44.9374548,48.0000143 Z M44.9374548,45.7500197 L31.0624879,45.7500197 C29.5109474,45.7500197 28.2499946,44.4890669 28.2499946,42.9375264 C28.2499946,41.6250295 29.1452867,40.5000322 30.4250078,40.2047295 L31.3952813,39.9797392 L31.2687557,38.8125362 C31.2593716,38.751608 31.2499946,38.6906798 31.2499946,38.6250367 C31.2499946,36.7640944 32.7640372,35.2500447 34.6249794,35.2500447 C35.8062358,35.2500447 36.8843582,35.8640874 37.5031159,36.895335 L38.1265427,37.9312975 L39.1155846,37.2328433 C39.565611,36.9187724 40.0859039,36.7500447 40.6249651,36.7500447 C41.9655686,36.7500447 43.0812276,37.7672354 43.2171373,39.1125538 L43.3202712,40.1250331 L44.9374548,40.1250331 C46.4889953,40.1250331 47.7499481,41.3859859 47.7499481,42.9375264 C47.7499481,44.4890669 46.4889953,45.7500197 44.9374548,45.7500197 Z M26.7499982,56.9999928 C27.0078101,56.9999928 27.2609528,56.8640374 27.4015775,56.6203246 L30.4015703,51.3703371 C30.6077924,51.0140605 30.481221,50.5546957 30.120321,50.3484279 C29.7640444,50.1422059 29.3046796,50.2640623 29.0984118,50.6296772 L26.098419,55.8796647 C25.8921969,56.2406105 26.0187683,56.6999753 26.3796683,56.9015739 C26.4968555,56.9671713 26.6234269,56.9999928 26.7499982,56.9999928 Z M44.7499553,56.9999928 C45.0077672,56.9999928 45.2609099,56.8640374 45.4015346,56.6203246 L48.4015274,51.3703371 C48.6077494,51.0140605 48.4811781,50.5546957 48.1202781,50.3484279 C47.7640015,50.1422059 47.3046367,50.2640623 47.0983689,50.6296772 L44.098376,55.8796647 C43.892154,56.2406105 44.0187254,56.6999753 44.3796254,56.9015739 C44.4968126,56.9671713 44.6233839,56.9999928 44.7499553,56.9999928 Z M40.249966,56.9999928 C40.5077779,56.9999928 40.7609206,56.8640374 40.9015453,56.6203246 L43.9015381,51.3703371 C44.1077602,51.0140605 43.9811888,50.5546957 43.6202888,50.3484279 C43.2640122,50.1422059 42.8046474,50.2640623 42.5983796,50.6296772 L39.5983868,55.8796647 C39.3921647,56.2406105 39.5187361,56.6999753 39.8796361,56.9015739 C39.9968233,56.9671713 40.1233947,56.9999928 40.249966,56.9999928 Z M35.7499768,56.9999928 C36.0077886,56.9999928 36.2609313,56.8640374 36.401556,56.6203246 L39.4015489,51.3703371 C39.6077709,51.0140605 39.4811995,50.5546957 39.1202995,50.3484279 C38.7640229,50.1422059 38.3046582,50.2640623 38.0983903,50.6296772 L35.0983975,55.8796647 C34.8921755,56.2406105 35.0187468,56.6999753 35.3796468,56.9015739 C35.496834,56.9671713 35.6234054,56.9999928 35.7499768,56.9999928 Z M31.2499875,56.9999928 C31.5077994,56.9999928 31.7609421,56.8640374 31.9015667,56.6203246 L34.9015596,51.3703371 C35.1077816,51.0140605 34.9812103,50.5546957 34.6203103,50.3484279 C34.2640336,50.1422059 33.8046689,50.2640623 33.5984011,50.6296772 L30.5984082,55.8796647 C30.3921862,56.2406105 30.5187575,56.6999753 30.8796576,56.9015739 C30.9968448,56.9671713 31.1234161,56.9999928 31.2499875,56.9999928 Z" id="icon-12"></path>
                    </g>
                </g>
            </g>
        </g>
    </g>
</svg>