<?xml version="1.0" encoding="UTF-8"?>
<svg width="27px" height="22px" viewBox="0 0 27 22" version="1.1" xmlns="http://www.w3.org/2000/svg" xmlns:xlink="http://www.w3.org/1999/xlink">
    <title>icon 14/icon</title>
    <g id="Page-1" stroke="none" stroke-width="1" fill="none" fill-rule="evenodd">
        <g id="LabQi-Homepage-V02" transform="translate(-148.000000, -5266.000000)" fill="#78B56D" fill-rule="nonzero">
            <g id="tips" transform="translate(0.000000, 3720.000000)">
                <g id="Tipos" transform="translate(122.000000, 0.000000)">
                    <g id="Group-22-Copy-2" transform="translate(0.000000, 1512.000000)">
                        <path d="M27.5,55.4999964 C27.9124863,55.4999964 28.2499946,55.1624881 28.2499946,54.7499982 L28.2499946,48.0000143 C28.2499946,41.3109586 34.1187398,35.9672213 40.981196,36.8437909 C46.6530574,37.5703517 50.749941,42.6750453 50.749941,48.3890667 L50.749941,54.7499982 C50.749941,55.1624881 51.0874493,55.4999964 51.4999392,55.4999964 L52.2499374,55.4999964 C52.6624273,55.4999964 52.9999356,55.1624881 52.9999356,54.7499982 L52.9999356,48.0000143 C52.9999356,40.2516044 46.4374513,34.003191 38.5765234,34.5328681 C31.4093804,35.0110011 26,41.2922361 26,48.4781473 L26,54.7499982 C26,55.1624881 26.3375084,55.4999964 26.7499982,55.4999964 L27.5,55.4999964 Z M31.9999893,55.4999964 C32.4124756,55.4999964 32.7499839,55.1624881 32.7499839,54.7499982 L32.7499839,48.0234517 C32.7499839,44.076577 36.1484133,40.912522 40.1749845,41.3062894 C43.681217,41.6484669 46.2499517,44.7984686 46.2499517,48.3234693 L46.2499517,54.7499982 C46.2499517,55.1624881 46.5874601,55.4999964 46.9999499,55.4999964 L47.7499481,55.4999964 C48.162438,55.4999964 48.4999464,55.1624881 48.4999464,54.7499982 L48.4999464,48.0234517 C48.4999464,42.6703304 43.8030734,38.3953314 38.3140423,39.0984547 C33.7812314,39.6797216 30.4999893,43.7625061 30.4999893,48.3375227 L30.4999893,54.7499982 C30.4999893,55.1624881 30.8374976,55.4999964 31.2499875,55.4999964 L31.9999893,55.4999964 Z M36.4999785,55.4999964 C36.9124648,55.4999964 37.2499732,55.1624881 37.2499732,54.7499982 L37.2499732,48.0000143 C37.2499732,46.7578298 38.2577833,45.7500197 39.4999678,45.7500197 C40.7421524,45.7500197 41.7499624,46.7578298 41.7499624,48.0000143 L41.7499624,54.7499982 C41.7499624,55.1624881 42.0874708,55.4999964 42.4999607,55.4999964 L43.2499589,55.4999964 C43.6624487,55.4999964 43.9999571,55.1624881 43.9999571,54.7499982 L43.9999571,48.0000143 C43.9999571,45.2250118 41.4780973,43.0312762 38.6046758,43.5891056 C36.4671534,44.0062647 34.9999785,46.0031624 34.9999785,48.1781297 L34.9999785,54.7499982 C34.9999785,55.1624881 35.3374869,55.4999964 35.7499768,55.4999964 L36.4999785,55.4999964 Z" id="icon-14"></path>
                    </g>
                </g>
            </g>
        </g>
    </g>
</svg>