<?xml version="1.0" encoding="UTF-8"?>
<svg width="27px" height="24px" viewBox="0 0 27 24" version="1.1" xmlns="http://www.w3.org/2000/svg" xmlns:xlink="http://www.w3.org/1999/xlink">
    <title>icon 09/icon</title>
    <g id="Page-1" stroke="none" stroke-width="1" fill="none" fill-rule="evenodd">
        <g id="LabQi-Homepage-V02" transform="translate(-148.000000, -4755.000000)" fill="#78B56D" fill-rule="nonzero">
            <g id="tips" transform="translate(0.000000, 3720.000000)">
                <g id="Tipos" transform="translate(122.000000, 0.000000)">
                    <g id="Group-22-Copy-2" transform="translate(0.000000, 1002.000000)">
                        <path d="M40.0249757,43.2844189 L44.6046615,38.7375547 C44.8999641,38.4469212 44.8999641,37.9687882 44.6093306,37.6781548 L44.0796535,37.1438085 C43.7890201,36.8484601 43.3108871,36.8484601 43.0202536,37.1390935 L40.6249651,39.5203287 L40.6249651,33.7500483 C40.6249651,33.3375584 40.2874568,33.0000501 39.8749669,33.0000501 L39.1249687,33.0000501 C38.7124788,33.0000501 38.3749705,33.3375584 38.3749705,33.7500483 L38.3749705,39.5203287 L35.979682,37.1390935 C35.6843336,36.8484601 35.2109155,36.8484601 34.9202821,37.1438085 L34.390605,37.6781548 C34.0999715,37.9734574 34.0999715,38.4469212 34.3952742,38.7375547 L38.9702907,43.2844189 C39.2609242,43.5750065 39.7343423,43.5750065 40.0249757,43.2844189 Z M52.9953202,49.46252 L52.9953202,48.6797002 C52.9999356,48.2953169 52.699918,48.0000143 52.3202497,47.9625235 C51.1437084,47.8406214 50.0139961,47.4046941 49.2077389,46.7484456 C48.799964,46.4156522 48.1952596,46.4203214 47.7874389,46.7531606 C46.8265037,47.5453187 45.4436945,48.0000143 43.9999571,48.0000143 C42.5890413,48.0000143 41.1734105,47.5312654 40.2077603,46.7484456 C39.7999854,46.4156522 39.195281,46.4203214 38.7874604,46.7531606 C37.8265251,47.5453187 36.4437159,48.0000143 34.9999785,48.0000143 C33.5890627,48.0000143 32.1734319,47.5312654 31.2077818,46.7484456 C30.8000069,46.4156522 30.1953025,46.4203214 29.7874818,46.7531606 C28.9812246,47.4187474 27.8796647,47.8453363 26.68907,47.9625235 C26.3046868,48.0000143 26,48.3000319 26,48.6890843 L26,49.46252 C26,49.8890631 26.3562308,50.2500089 26.7828198,50.2125182 C28.1374766,50.095331 29.431251,49.673457 30.4999893,49.0031552 C33.0734389,50.6062398 36.9640547,50.5921865 39.4999678,49.0031552 C42.0734175,50.6062398 45.9640332,50.5921865 48.4999464,49.0031552 C49.5733996,49.673457 50.8671282,50.095331 52.2124467,50.2125182 C52.6389898,50.2500089 52.9953202,49.8890631 52.9953202,49.46252 Z M52.9953202,56.2453255 L52.9953202,55.4625057 C52.9999356,55.0827916 52.699918,54.787489 52.3202497,54.745329 C51.1437084,54.6234269 50.0139961,54.1874996 49.2077389,53.5312511 C48.799964,53.1984577 48.1952596,53.2031269 47.7874389,53.5359203 C46.8265037,54.3281242 45.4436945,54.7828198 43.9999571,54.7828198 C42.5890413,54.7828198 41.1734105,54.3140709 40.2077603,53.5312511 C39.7999854,53.1984577 39.195281,53.2031269 38.7874604,53.5359203 C37.8265251,54.3281242 36.4437159,54.7828198 34.9999785,54.7828198 C33.5890627,54.7828198 32.1734319,54.3140709 31.2077818,53.5312511 C30.8000069,53.1984577 30.1953025,53.2031269 29.7874818,53.5359203 C28.9812246,54.2015529 27.8796647,54.6281418 26.68907,54.745329 C26.3046868,54.787489 26,55.0875066 26,55.4718898 L26,56.2453255 C26,56.6718686 26.3562308,57.0328144 26.7828198,56.9953237 C28.1374766,56.8781364 29.431251,56.4562625 30.4999893,55.7859149 C33.0734389,57.3890453 36.9640547,57.374992 39.4999678,55.7859149 C42.0734175,57.3890453 45.9640332,57.374992 48.4999464,55.7859149 C49.5733996,56.4562625 50.8671282,56.8781364 52.2124467,56.9953237 C52.6389898,57.0328144 52.9953202,56.6718686 52.9953202,56.2453255 Z" id="icon-09"></path>
                    </g>
                </g>
            </g>
        </g>
    </g>
</svg>