<?xml version="1.0" encoding="UTF-8"?>
<svg width="20px" height="24px" viewBox="0 0 20 24" version="1.1" xmlns="http://www.w3.org/2000/svg" xmlns:xlink="http://www.w3.org/1999/xlink">
    <title>icon 06/icon</title>
    <g id="Page-1" stroke="none" stroke-width="1" fill="none" fill-rule="evenodd">
        <g id="LabQi-Homepage-V02" transform="translate(-148.000000, -4449.000000)" fill="#78B56D" fill-rule="nonzero">
            <g id="tips" transform="translate(0.000000, 3720.000000)">
                <g id="Tipos" transform="translate(122.000000, 0.000000)">
                    <g id="Group-22-Copy-2" transform="translate(0.000000, 696.000000)">
                        <path d="M40.765132,56.9999928 C41.6116724,56.9999928 42.4287328,56.6512235 42.9954429,56.0226697 C44.5066545,54.3454734 45.4446558,52.1418959 45.4980767,49.7189128 C45.5801077,45.9712563 43.3995099,42.617825 40.249966,40.9242408 L40.249966,35.2500447 L40.9999642,35.2500447 C41.4143309,35.2500447 41.7499624,34.9144132 41.7499624,34.5000501 L41.7499624,33.7500483 C41.7499624,33.3356816 41.4143309,33.0000501 40.9999642,33.0000501 L30.4999893,33.0000501 C30.0856226,33.0000501 29.7499911,33.3356816 29.7499911,33.7500483 L29.7499911,34.5000501 C29.7499911,34.9144132 30.0856226,35.2500447 30.4999893,35.2500447 L31.2499875,35.2500447 L31.2499875,40.8806618 C28.1379801,42.5086028 26,45.7443892 26,49.5000107 C26,52.0214128 26.9576393,54.3182823 28.5284516,56.0484418 C29.0885699,56.6657804 29.898123,56.9999928 30.7315714,56.9999928 L40.765132,56.9999928 Z M43.1407367,48.3750134 L41.6520013,48.3750134 C40.4140281,48.3750134 39.1732627,48.0900104 38.0674914,47.5509492 C35.2081232,46.1564213 31.791841,46.1564213 28.9324729,47.5509492 L28.4670199,47.7778163 C29.394218,43.8975461 32.6871789,42.6679958 33.4999821,42.2423681 L33.4999821,35.2500447 L37.9999714,35.2500447 L37.9999714,42.2691015 C38.7879181,42.6928523 42.4418248,44.1717458 43.1407367,48.3750134 Z M40.765132,54.7499982 L30.7315714,54.7499982 C30.5168807,54.7499982 30.3162434,54.669844 30.1948447,54.5362689 C29.133568,53.367189 28.5054719,51.9004719 28.3287298,50.3479701 L29.9187223,49.5740767 C32.1598364,48.4800241 34.8392123,48.4800241 37.0831187,49.5740767 C38.4935768,50.2617277 40.0741852,50.625008 41.6520013,50.625008 L43.1411945,50.625008 C42.9218347,52.0649918 42.3087075,53.423448 41.323877,54.5160815 C41.192133,54.6623367 40.9830728,54.7499982 40.765132,54.7499982 Z" id="icon-06"></path>
                    </g>
                </g>
            </g>
        </g>
    </g>
</svg>