<?xml version="1.0" encoding="UTF-8"?>
<svg width="25px" height="35px" viewBox="0 0 25 35" version="1.1" xmlns="http://www.w3.org/2000/svg" xmlns:xlink="http://www.w3.org/1999/xlink">
    <title>icon 02/icon</title>
    <g id="Page-1" stroke="none" stroke-width="1" fill="none" fill-rule="evenodd">
        <g id="LabQi-Homepage-V02" transform="translate(-556.000000, -1750.000000)" fill="#fff" fill-rule="nonzero">
            <g id="para-quem?" transform="translate(0.000000, 1423.000000)">
                <g id="Group-6" transform="translate(520.000000, 299.000000)">
                    <path d="M48.4999721,62.2499899 C54.9599749,62.2499899 60.1874443,56.9607187 60.1874443,50.4237394 C60.1874443,43.0028586 53.5607778,40.2410397 50.44034,29.7169711 C50.1740671,28.750127 49.3373763,28.2500709 48.4979618,28.2500709 C47.6778725,28.2500709 46.8551244,28.7282078 46.5596043,29.7169711 C43.4537577,40.1931806 36.8125,43.0400175 36.8125,50.4237394 C36.8125,56.9607187 42.0399694,62.2499899 48.4999721,62.2499899 Z M48.4999721,60.1249949 C43.2273025,60.1249949 38.9374949,55.7727371 38.9374949,50.4237394 C38.9374949,47.2123174 40.464835,45.0235752 42.5791946,41.9941216 C44.5169036,39.2177114 46.9181583,35.776527 48.5012691,30.6446461 C50.0837315,35.79248 52.4896553,39.2316541 54.431385,42.0054054 C56.5390651,45.0189061 58.0624493,47.1957159 58.0624493,50.4237394 C58.0624493,55.7727371 53.7726418,60.1249949 48.4999721,60.1249949 Z M48.4999721,58 C49.0869916,58 49.5624696,57.524522 49.5624696,56.9375025 C49.5624696,56.3504831 49.0869916,55.8750051 48.4999721,55.8750051 C45.5701276,55.8750051 43.1874848,53.4917138 43.1874848,50.5625177 C43.1874848,49.9754983 42.7120068,49.5000203 42.1249873,49.5000203 C41.5379679,49.5000203 41.0624899,49.9754983 41.0624899,50.5625177 C41.0624899,54.6630939 44.399396,58 48.4999721,58 Z" id="icon-02"></path>
                </g>
            </g>
        </g>
    </g>
</svg>