<?xml version="1.0" encoding="UTF-8"?>
<svg width="48px" height="43px" viewBox="0 0 48 43" version="1.1" xmlns="http://www.w3.org/2000/svg" xmlns:xlink="http://www.w3.org/1999/xlink">
    <title>folha/icon</title>
    <g id="Page-1" stroke="none" stroke-width="1" fill="none" fill-rule="evenodd">
        <g id="LabQi-Homepage-V02" transform="translate(-688.000000, -1209.000000)" fill="#FFFFFF" fill-rule="nonzero">
            <g id="about" transform="translate(0.000000, 750.000000)">
                <path d="M691.822615,499.92932 C691.85546,499.839037 693.545267,495.212534 698.081649,490.897652 C701.165984,496.082031 706.990189,499.199211 713.298409,498.534792 C726.185456,497.599606 735.249887,486.049649 735.249887,471.907463 C735.249887,467.789488 734.363968,463.523874 732.805378,460.045805 C732.567456,459.512603 732.099863,459.250088 731.63235,459.250088 C731.197521,459.250088 730.754602,459.479759 730.483915,459.947352 C727.940952,464.368857 723.388229,467.125069 718.187428,467.125069 L711.624944,467.125069 C702.929652,467.125069 695.874981,474.17974 695.874981,482.875031 C695.874981,484.335168 696.08823,485.737947 696.45737,487.075037 C690.378901,492.36604 688.14764,498.52654 688.106624,498.641416 C687.753907,499.666804 688.29528,500.790646 689.320668,501.143363 C690.469103,501.537096 691.510913,500.831661 691.822615,499.92932 Z M701.223422,488.346519 C705.111646,485.647665 710.4109,483.53128 717.539351,483.53128 C718.622177,483.53128 719.508096,482.64536 719.508096,481.562534 C719.508096,480.479708 718.622177,479.593789 717.539351,479.593789 C710.049931,479.593789 704.32418,481.685581 699.984705,484.466466 C699.910925,483.941435 699.820643,483.416404 699.820643,482.875031 C699.820643,476.361734 705.119897,471.062559 711.633115,471.062559 L718.195599,471.062559 C722.945229,471.062559 727.350313,469.257876 730.664319,466.066836 C731.090897,467.969973 731.320568,469.963311 731.320568,471.907463 C731.312397,484.294153 723.6179,493.842599 712.888254,494.621894 C705.825332,495.368345 702.17495,490.151202 701.223422,488.346519 Z" id="folha"></path>
            </g>
        </g>
    </g>
</svg>