<?xml version="1.0" encoding="UTF-8"?>
<svg width="55px" height="55px" viewBox="0 0 55 55" version="1.1" xmlns="http://www.w3.org/2000/svg" xmlns:xlink="http://www.w3.org/1999/xlink">
    <title>icon 16/icon</title>
    <g id="Page-1" stroke="none" stroke-width="1" fill="none" fill-rule="evenodd">
        <g id="LabQi-Homepage-V02" transform="translate(-578.000000, -6334.000000)" fill="#FFFFFF" fill-rule="nonzero">
            <g id="Diferenciais" transform="translate(0.000000, 5591.000000)">
                <g id="Group-15" transform="translate(520.000000, 688.000000)">
                    <path d="M77.8920958,106.027774 L107.050664,76.8692053 L108.308039,78.1265799 C108.489355,78.3078959 108.715917,78.3872147 108.953763,78.3872147 C109.191719,78.3872147 109.418281,78.2965014 109.599486,78.1265799 L112.12563,75.6004362 C112.465473,75.2605933 112.465473,74.6829045 112.114346,74.3316671 L93.1058199,55.3231408 C92.924504,55.1419355 92.697942,55.0626167 92.4600962,55.0626167 C92.2335343,55.0626167 91.9955778,55.1532193 91.8143725,55.3231408 L89.2882288,57.8492845 C88.9369914,58.2005219 88.9369914,58.7782107 89.2882288,59.1294481 L90.5682817,60.3868227 L61.4097132,89.5453912 C56.8671902,94.0879143 56.8671902,101.48514 61.4097132,106.027774 C65.9523469,110.559013 73.3382889,110.570297 77.8920958,106.027774 Z M93.977995,82.2500519 L76.3968754,82.2500519 L94.3631946,64.2837327 L103.153754,73.0742925 L93.977995,82.2500519 Z M65.2499827,102.187504 C62.8257255,99.7632471 62.8257255,95.8210911 65.2499827,93.3969445 L70.9593884,87.6875389 L88.5405079,87.6875389 L74.0405425,102.187504 C71.6276798,104.600367 67.6855238,104.623045 65.2499827,102.187504 Z" id="icon-16"></path>
                </g>
            </g>
        </g>
    </g>
</svg>