<?xml version="1.0" encoding="UTF-8"?>
<svg width="28px" height="16px" viewBox="0 0 28 16" version="1.1" xmlns="http://www.w3.org/2000/svg" xmlns:xlink="http://www.w3.org/1999/xlink">
    <title>C48FFC22-2847-4841-A7D1-5F4724F06ECB</title>
    <g id="Page-1" stroke="none" stroke-width="1" fill="none" fill-rule="evenodd">
        <g id="LabQi-Homepage-V02" transform="translate(-319.000000, -581.000000)" fill="#78B56D" fill-rule="nonzero">
            <g id="head" transform="translate(0.000000, 20.000000)">
                <g id="btn" transform="translate(122.000000, 539.000000)">
                    <path d="M217.499951,37.7803121 L224.780268,30.5303294 C225.073114,30.2374224 225.073114,29.76257 224.780268,29.4696019 L217.499951,22.2196803 C217.207105,21.9267732 216.732192,21.9267732 216.439346,22.2196803 L215.997391,22.6615737 C215.704545,22.9544808 215.704545,23.4293331 215.997391,23.7222402 L221.242862,28.9374987 L197.749998,28.9374987 C197.335815,28.9374987 197,29.2733133 197,29.6874969 L197,30.3124954 C197,30.726679 197.335815,31.0624937 197.749998,31.0624937 L221.242862,31.0624937 L215.997391,36.2777522 C215.704545,36.5705982 215.704545,37.0454506 215.997391,37.3384186 L216.439346,37.7803121 C216.732192,38.0731581 217.207105,38.0731581 217.499951,37.7803121 Z" id="l"></path>
                </g>
            </g>
        </g>
    </g>
</svg>