<?xml version="1.0" encoding="UTF-8"?>
<svg width="76px" height="76px" viewBox="0 0 76 76" version="1.1" xmlns="http://www.w3.org/2000/svg" xmlns:xlink="http://www.w3.org/1999/xlink">
    <title>C42276C7-F704-4C00-A006-9F83AD7F602A@1,5x</title>
    <g id="Page-1" stroke="none" stroke-width="1" fill="none" fill-rule="evenodd">
        <g id="LabQi-Homepage-Copy" transform="translate(-428.000000, -208.000000)">
            <g id="Group-6" transform="translate(428.000000, 208.000000)">
                <rect id="Rectangle" fill="#A6B56D" x="0" y="0" width="76" height="76"></rect>
                <g id="pdf" transform="translate(23.000000, 23.000000)" fill="#FFFFFF" fill-rule="nonzero">
                    <path d="M5,0 L5,6.25 L0,6.25 L0,17.5 L5,17.5 L5,30 L22.5,30 L30,22.5 L30,0 L5,0 Z M1.25,16.25 L1.25,7.5 L20,7.5 L20,16.25 L1.25,16.25 Z M22.5,28.2325 L22.5,22.5 L28.2325,22.5 L22.5,28.2325 Z M28.75,21.25 L21.25,21.25 L21.25,28.75 L6.25,28.75 L6.25,17.5 L21.25,17.5 L21.25,6.25 L6.25,6.25 L6.25,1.25 L28.75,1.25 L28.75,21.25 Z" id="Shape"></path>
                    <path d="M7.0975,10.22375 C7.0475,10.03125 6.965,9.86 6.85,9.71 C6.735,9.56 6.585,9.43875 6.39625,9.34625 C6.2075,9.25375 5.9775,9.2075 5.7025,9.2075 L3.8125,9.2075 L3.8125,14.5625 L4.8925,14.5625 L4.8925,12.425 L5.47,12.425 C5.725,12.425 5.9575,12.39 6.1675,12.32625 C6.3775,12.2625 6.55625,12.16375 6.70375,12.03375 C6.85125,11.905 6.96625,11.7375 7.04875,11.5325 C7.13125,11.3275 7.1725,11.0875 7.1725,10.8125 C7.1725,10.6125 7.14625,10.415 7.0975,10.22375 Z M5.89375,11.43625 C5.7625,11.56625 5.5875,11.6325 5.3725,11.6325 L4.8925,11.6325 L4.8925,10.00375 L5.3425,10.00375 C5.6125,10.00375 5.805,10.075 5.92,10.21375 C6.035,10.35375 6.0925,10.55875 6.0925,10.82875 C6.0925,11.10375 6.02625,11.30625 5.89375,11.43625 Z" id="Shape"></path>
                    <path d="M11.98125,10.7375 C11.93625,10.41625 11.85125,10.14375 11.7225,9.91625 C11.595,9.6875 11.41625,9.51375 11.18625,9.39125 C10.955,9.26875 10.65375,9.20625 10.2775,9.20625 L8.5075,9.20625 L8.5075,14.56125 L10.2125,14.56125 C10.5725,14.56125 10.87,14.50625 11.105,14.39625 C11.34,14.28625 11.5275,14.12 11.6675,13.89375 C11.8075,13.66875 11.90625,13.38125 11.96375,13.035 C12.02125,12.6875 12.04875,12.27875 12.04875,11.80875 C12.04875,11.415 12.02625,11.0575 11.98125,10.7375 Z M10.93375,12.755 C10.9125,13.00125 10.8675,13.19875 10.79875,13.34875 C10.73125,13.49875 10.64,13.60625 10.525,13.67125 C10.41,13.73625 10.2575,13.76875 10.0675,13.76875 L9.5875,13.76875 L9.5875,10.0025 L10.04375,10.0025 C10.24875,10.0025 10.4125,10.0425 10.535,10.12 C10.65875,10.19625 10.75,10.31125 10.81375,10.46375 C10.87625,10.61625 10.9175,10.8075 10.9375,11.0375 C10.95625,11.26875 10.9675,11.53625 10.9675,11.84125 C10.9675,12.20625 10.95625,12.51125 10.93375,12.755 Z" id="Shape"></path>
                    <polygon id="Path" points="16.5025 10.0925 16.5025 9.2075 13.51 9.2075 13.51 14.5625 14.59 14.5625 14.59 12.2375 16.39 12.2375 16.39 11.3525 14.59 11.3525 14.59 10.0925"></polygon>
                </g>
            </g>
        </g>
    </g>
</svg>